<mxfile host="app.diagrams.net" modified="2021-05-26T13:21:48.407Z" agent="5.0 (Windows NT 10.0; Win64; x64) AppleWebKit/537.36 (KHTML, like Gecko) Chrome/90.0.4430.212 Safari/537.36" etag="UVY7bONEmLlXMGf1BKAG" version="14.7.1" type="github">
  <diagram id="8tR2ZjvFz_OePciquMIh" name="Page-1">
    <mxGraphModel dx="1102" dy="614" grid="1" gridSize="10" guides="1" tooltips="1" connect="1" arrows="1" fold="1" page="1" pageScale="1" pageWidth="850" pageHeight="1100" math="0" shadow="0">
      <root>
        <mxCell id="0" />
        <mxCell id="1" parent="0" />
        <mxCell id="pIFEROf9PmbTHQrlQfuR-3" style="edgeStyle=orthogonalEdgeStyle;rounded=0;orthogonalLoop=1;jettySize=auto;html=1;entryX=0.5;entryY=0;entryDx=0;entryDy=0;" edge="1" parent="1" source="pIFEROf9PmbTHQrlQfuR-1" target="pIFEROf9PmbTHQrlQfuR-2">
          <mxGeometry relative="1" as="geometry" />
        </mxCell>
        <mxCell id="pIFEROf9PmbTHQrlQfuR-1" value="start" style="ellipse;whiteSpace=wrap;html=1;" vertex="1" parent="1">
          <mxGeometry x="160" y="40" width="120" height="80" as="geometry" />
        </mxCell>
        <mxCell id="pIFEROf9PmbTHQrlQfuR-6" value="" style="edgeStyle=orthogonalEdgeStyle;rounded=0;orthogonalLoop=1;jettySize=auto;html=1;" edge="1" parent="1" source="pIFEROf9PmbTHQrlQfuR-2">
          <mxGeometry relative="1" as="geometry">
            <mxPoint x="220" y="380" as="targetPoint" />
          </mxGeometry>
        </mxCell>
        <mxCell id="pIFEROf9PmbTHQrlQfuR-2" value="Array=[12,47,65,0,74,2,98]&lt;br&gt;i=0" style="shape=parallelogram;perimeter=parallelogramPerimeter;whiteSpace=wrap;html=1;fixedSize=1;" vertex="1" parent="1">
          <mxGeometry x="120" y="200" width="200" height="80" as="geometry" />
        </mxCell>
        <mxCell id="pIFEROf9PmbTHQrlQfuR-13" style="edgeStyle=orthogonalEdgeStyle;rounded=0;orthogonalLoop=1;jettySize=auto;html=1;" edge="1" parent="1" source="pIFEROf9PmbTHQrlQfuR-9" target="pIFEROf9PmbTHQrlQfuR-12">
          <mxGeometry relative="1" as="geometry" />
        </mxCell>
        <mxCell id="pIFEROf9PmbTHQrlQfuR-9" value="print&lt;br&gt;Array(3) deleted" style="shape=parallelogram;perimeter=parallelogramPerimeter;whiteSpace=wrap;html=1;fixedSize=1;" vertex="1" parent="1">
          <mxGeometry x="160" y="660" width="120" height="60" as="geometry" />
        </mxCell>
        <mxCell id="pIFEROf9PmbTHQrlQfuR-11" style="edgeStyle=orthogonalEdgeStyle;rounded=0;orthogonalLoop=1;jettySize=auto;html=1;entryX=0.5;entryY=0;entryDx=0;entryDy=0;" edge="1" parent="1" source="pIFEROf9PmbTHQrlQfuR-10" target="pIFEROf9PmbTHQrlQfuR-9">
          <mxGeometry relative="1" as="geometry" />
        </mxCell>
        <mxCell id="pIFEROf9PmbTHQrlQfuR-10" value="&lt;span&gt;splice.(3,1)&lt;/span&gt;" style="rounded=0;whiteSpace=wrap;html=1;" vertex="1" parent="1">
          <mxGeometry x="160" y="520" width="120" height="60" as="geometry" />
        </mxCell>
        <mxCell id="pIFEROf9PmbTHQrlQfuR-12" value="end" style="ellipse;whiteSpace=wrap;html=1;" vertex="1" parent="1">
          <mxGeometry x="160" y="790" width="120" height="80" as="geometry" />
        </mxCell>
        <mxCell id="pIFEROf9PmbTHQrlQfuR-16" style="edgeStyle=orthogonalEdgeStyle;rounded=0;orthogonalLoop=1;jettySize=auto;html=1;exitX=0.5;exitY=1;exitDx=0;exitDy=0;entryX=0.5;entryY=0;entryDx=0;entryDy=0;" edge="1" parent="1" target="pIFEROf9PmbTHQrlQfuR-10">
          <mxGeometry relative="1" as="geometry">
            <mxPoint x="220" y="470" as="sourcePoint" />
          </mxGeometry>
        </mxCell>
        <mxCell id="pIFEROf9PmbTHQrlQfuR-19" value="" style="edgeStyle=orthogonalEdgeStyle;rounded=0;orthogonalLoop=1;jettySize=auto;html=1;" edge="1" parent="1" source="pIFEROf9PmbTHQrlQfuR-17" target="pIFEROf9PmbTHQrlQfuR-10">
          <mxGeometry relative="1" as="geometry" />
        </mxCell>
        <mxCell id="pIFEROf9PmbTHQrlQfuR-17" value="&lt;span&gt;a=Array.indexof[0]&lt;br&gt;i=3&lt;br&gt;&lt;/span&gt;" style="rounded=0;whiteSpace=wrap;html=1;" vertex="1" parent="1">
          <mxGeometry x="160" y="390" width="120" height="60" as="geometry" />
        </mxCell>
      </root>
    </mxGraphModel>
  </diagram>
</mxfile>
